<?xml version="1.0" standalone="no"?>
<!DOCTYPE svg PUBLIC "-//W3C//DTD SVG 20010904//EN"
 "http://www.w3.org/TR/2001/REC-SVG-20010904/DTD/svg10.dtd">
<svg version="1.0" xmlns="http://www.w3.org/2000/svg"
 width="1366.000000pt" height="768.000000pt" viewBox="0 0 1366.000000 768.000000"
 preserveAspectRatio="xMidYMid meet">
<metadata>
Created by potrace 1.15, written by Peter Selinger 2001-2017
</metadata>
<g transform="translate(0.000000,768.000000) scale(0.100000,-0.100000)"
fill="#000000" stroke="none">
<path d="M12574 7227 c-3 -8 -4 -43 -2 -78 l3 -64 75 0 75 0 0 75 0 75 -73 3
c-55 2 -74 -1 -78 -11z"/>
<path d="M13415 7230 c-77 -30 -57 -143 25 -143 41 0 73 32 73 73 0 50 -53 88
-98 70z"/>
<path d="M2310 6860 c-8 -6 -34 -7 -57 -4 -49 7 -83 -2 -83 -22 0 -8 -9 -14
-20 -14 -11 0 -20 -5 -20 -11 0 -5 4 -8 10 -4 5 3 17 -7 26 -22 10 -15 27 -38
37 -50 17 -19 18 -27 9 -45 -6 -13 -11 -17 -11 -10 -1 8 -10 25 -20 38 -19 24
-20 25 -30 5 -17 -30 -13 -41 12 -41 13 0 27 -4 33 -10 6 -6 21 2 42 25 28 30
32 40 29 75 -3 28 0 40 9 40 7 0 15 -6 17 -12 3 -7 6 -1 6 15 1 15 4 27 9 27
4 0 6 -57 4 -127 -3 -104 -6 -130 -20 -140 -12 -10 -17 -10 -23 -1 -4 7 -6 15
-3 19 2 4 -9 9 -25 11 -20 3 -32 -1 -40 -15 -7 -10 -11 -20 -9 -21 30 -22 80
-46 94 -46 11 0 30 7 43 16 22 16 23 19 19 165 -3 149 -10 177 -38 159z"/>
<path d="M13383 6494 c-3 -8 -1 -20 6 -27 6 -6 10 -20 10 -31 -1 -16 -2 -17
-6 -4 -2 9 -16 21 -31 27 -15 5 -21 10 -14 10 6 1 12 6 12 12 0 7 -17 9 -52 4
-62 -8 -88 -25 -39 -25 28 0 33 -3 28 -20 -3 -11 -1 -17 4 -14 13 7 41 -15 33
-27 -3 -5 0 -9 5 -9 16 0 13 16 -4 30 -22 18 -18 28 8 26 14 0 24 -8 24 -19 1
-9 9 -25 18 -34 11 -11 15 -28 13 -50 -2 -18 0 -33 4 -33 4 0 8 -5 8 -11 0 -5
-4 -7 -10 -4 -5 3 -10 -1 -10 -9 0 -9 -12 -18 -27 -21 -16 -3 -41 -12 -56 -20
-27 -14 -28 -14 -39 15 -7 21 -16 30 -31 29 -22 0 -22 0 0 -9 14 -6 20 -15 17
-23 -16 -43 133 -65 190 -28 32 21 66 69 65 91 0 10 -2 11 -6 3 -2 -7 -17 -13
-31 -12 l-27 1 25 8 c14 4 19 8 13 9 -24 2 -13 21 11 21 20 0 24 4 21 22 -6
28 -24 39 -47 27 -17 -9 -22 -5 -19 15 1 4 -6 15 -16 22 -14 11 -14 14 -3 12
11 -2 14 4 11 22 -5 39 -46 56 -58 24z"/>
<path d="M12872 6445 c-21 -9 -38 -27 -48 -50 -20 -49 1 -100 51 -120 31 -14
39 -14 70 0 78 32 78 138 1 170 -41 18 -33 18 -74 0z"/>
<path d="M4681 5670 c-1 -201 3 -300 10 -300 5 0 21 -12 35 -27 35 -37 48 -20
30 40 -12 41 -12 48 0 55 12 7 9 11 -12 20 -24 12 -25 14 -12 35 19 28 63 50
87 42 11 -3 38 -37 61 -75 23 -38 48 -74 56 -81 8 -6 14 -16 14 -22 0 -19 32
-97 40 -97 4 0 10 12 13 28 4 19 1 32 -13 44 -29 24 -24 46 14 65 32 15 34 19
29 52 -3 20 -11 42 -16 49 -8 10 -7 16 5 23 15 8 15 13 2 45 -13 31 -13 39 0
65 16 32 12 59 -21 124 -13 25 -19 52 -16 71 3 20 -1 35 -11 43 -20 17 -21 55
-1 71 25 21 17 30 -24 30 -46 0 -55 -10 -53 -60 1 -28 -5 -44 -24 -63 -18 -18
-25 -34 -23 -55 6 -52 -33 -79 -66 -46 -14 15 -14 19 -1 39 14 21 14 25 0 36
-11 9 -13 23 -9 49 5 30 3 39 -10 44 -12 4 -16 14 -13 31 5 23 2 25 -33 25
l-38 0 0 -300z m200 50 c21 -12 26 -49 8 -67 -15 -15 7 -54 29 -51 23 4 29
-37 6 -46 -9 -3 -22 -2 -28 2 -6 5 -26 12 -45 16 -43 8 -71 32 -71 61 0 23 24
40 41 29 5 -3 9 5 9 18 0 13 5 29 12 36 15 15 15 15 39 2z"/>
<path d="M6313 5963 c-20 -7 -15 -19 12 -31 14 -6 25 -18 25 -27 0 -8 4 -15 9
-15 5 0 16 -15 25 -34 20 -43 45 -66 47 -42 1 9 3 21 4 26 1 6 3 15 4 20 0 6
12 10 25 10 31 0 56 -34 56 -77 0 -28 4 -33 24 -33 29 0 43 30 22 46 -19 13
-21 45 -5 61 7 7 21 8 41 3 23 -7 30 -5 35 7 7 19 -6 43 -33 57 -10 6 -23 17
-27 24 -11 17 -159 17 -155 -1 2 -7 -4 -20 -12 -28 -13 -14 -17 -13 -38 13
-23 27 -34 31 -59 21z"/>
<path d="M8487 5950 c-6 -24 -42 -27 -55 -4 -8 14 -15 9 -41 -29 -17 -25 -31
-48 -31 -51 0 -3 -19 -35 -42 -70 -24 -35 -56 -85 -73 -112 -32 -53 -65 -70
-65 -35 0 11 17 57 38 101 39 81 41 107 4 48 -11 -18 -37 -65 -57 -104 -35
-67 -75 -124 -89 -124 -15 0 -4 60 19 108 14 29 25 56 25 60 0 5 11 37 26 71
14 35 23 65 20 68 -2 2 -7 -4 -10 -14 -7 -19 -86 -83 -103 -83 -6 0 -18 11
-27 25 -9 14 -20 25 -24 25 -4 0 -15 -21 -24 -47 -17 -46 -17 -48 4 -70 20
-21 19 -53 -2 -53 -19 0 -10 -17 16 -29 32 -14 67 -56 76 -90 3 -15 10 -36 13
-48 12 -37 -10 -27 -65 31 -59 62 -95 75 -137 52 -15 -9 -40 -21 -55 -28 -17
-7 -28 -20 -28 -33 -1 -11 -14 -36 -31 -55 -24 -29 -31 -32 -39 -20 -13 21
-12 32 6 70 14 27 14 34 3 41 -23 14 -29 10 -29 -20 0 -31 -22 -57 -40 -46 -5
3 -10 14 -10 23 0 9 -5 24 -10 32 -8 12 -12 13 -19 2 -6 -11 -10 -10 -15 3 -6
16 -8 16 -29 2 -13 -8 -43 -17 -68 -18 -41 -3 -44 -2 -44 22 -1 27 -69 119
-89 119 -6 0 -25 -4 -42 -9 -35 -10 -121 14 -153 43 -25 22 -77 36 -111 30
-16 -4 -40 1 -59 10 -18 10 -64 18 -110 21 -74 3 -82 2 -115 -23 -40 -30 -46
-52 -16 -52 25 0 38 -29 20 -40 -9 -6 -19 -2 -27 8 -8 11 -12 12 -13 5 0 -7
-12 -13 -26 -13 -20 0 -25 4 -20 16 3 9 6 24 6 35 0 10 6 19 14 19 15 0 42 28
34 36 -8 7 -75 -22 -93 -40 -8 -8 -15 -23 -15 -33 0 -20 -18 -43 -33 -43 -5 0
-6 14 -2 30 5 23 3 30 -8 30 -9 0 -22 3 -30 6 -8 3 -23 -3 -33 -13 -11 -11
-32 -25 -49 -32 l-30 -13 19 21 c11 12 25 21 33 21 7 0 13 5 13 10 0 6 -11 10
-25 10 -19 0 -29 -9 -42 -35 -12 -24 -23 -35 -38 -35 -23 0 -70 -48 -86 -88
-5 -12 -20 -27 -34 -34 -14 -6 -25 -18 -25 -25 0 -17 -32 -13 -38 5 -2 6 3 12
11 12 8 0 20 7 27 15 11 13 8 15 -16 15 -29 -1 -74 -30 -74 -48 0 -11 -30 -25
-38 -17 -3 3 0 5 6 5 7 0 12 5 12 10 0 29 -62 -6 -65 -36 0 -11 -5 -25 -9 -33
-5 -7 -10 -35 -12 -62 -2 -26 -11 -65 -20 -86 -9 -21 -19 -53 -23 -72 -3 -19
-13 -37 -21 -41 -8 -4 -29 -13 -46 -22 -37 -18 -57 -8 -77 42 l-14 32 -6 -53
c-3 -31 0 -59 6 -67 7 -9 7 -16 -1 -24 -16 -16 -34 1 -26 25 6 19 5 20 -9 9
-33 -27 -68 -7 -90 53 -3 6 -14 -2 -25 -16 -27 -34 -54 -40 -89 -22 -23 12
-29 12 -38 1 -5 -8 -29 -20 -52 -27 -61 -20 -78 -4 -69 64 12 90 11 97 -5 108
-9 6 -24 7 -34 3 -14 -5 -15 -9 -5 -21 29 -35 -12 -91 -50 -67 -28 17 -43 15
-36 -4 4 -10 11 -44 16 -78 5 -34 14 -81 20 -106 6 -25 14 -87 19 -137 5 -67
13 -98 26 -113 25 -27 32 -25 55 13 11 19 30 38 43 44 14 6 29 29 40 61 14 37
28 56 53 71 19 11 34 24 34 29 0 14 79 64 90 57 23 -14 10 -55 -25 -77 -26
-18 -33 -28 -29 -43 9 -28 9 -28 44 -10 26 14 38 15 58 6 24 -11 25 -14 18
-82 -8 -86 2 -87 57 -8 79 113 153 81 97 -42 l-19 -44 24 -8 c17 -6 28 -23 41
-60 9 -29 20 -56 24 -62 5 -5 11 -27 15 -47 5 -25 11 -35 21 -31 17 6 28 -35
28 -98 -1 -40 2 -46 18 -41 14 3 18 -1 18 -20 0 -37 20 -90 42 -111 10 -10 32
-42 48 -71 17 -29 41 -63 55 -76 14 -13 25 -29 25 -35 0 -10 24 -40 98 -120
15 -16 38 -47 51 -67 12 -21 27 -38 32 -38 5 0 30 -33 56 -72 25 -40 55 -83
66 -95 11 -13 19 -24 16 -26 -21 -16 -112 -69 -141 -83 -21 -10 -38 -21 -38
-25 0 -3 -12 -11 -27 -18 -76 -29 -88 -34 -93 -36 -3 -1 -12 -4 -20 -8 -8 -3
-34 -11 -58 -17 -36 -9 -42 -14 -37 -31 13 -39 -71 -5 -98 41 -24 40 -61 64
-136 89 -35 11 -70 26 -78 33 -9 7 -25 17 -36 23 -12 6 -23 18 -25 28 -5 26
30 21 62 -8 15 -13 52 -32 84 -41 44 -13 67 -27 103 -65 42 -44 95 -76 106
-65 11 11 -10 45 -32 50 -13 3 -45 31 -71 61 -39 46 -56 58 -103 71 -31 9 -67
23 -81 32 -14 9 -34 21 -45 27 -11 6 -21 18 -23 28 -5 27 34 21 76 -11 20 -16
56 -34 79 -41 29 -8 52 -24 70 -47 36 -46 102 -82 114 -62 14 22 11 27 -38 48
-30 13 -58 35 -74 59 -20 28 -41 43 -87 60 -34 12 -68 28 -76 36 -8 8 -21 15
-29 15 -8 0 -20 6 -26 14 -10 12 -16 12 -40 -2 -26 -15 -30 -14 -59 6 -42 31
-246 131 -310 153 -29 10 -79 34 -110 52 -51 31 -68 35 -157 42 -55 4 -112 7
-127 8 -16 0 -28 2 -28 4 0 2 11 19 25 37 14 18 25 37 25 41 0 5 7 17 17 27 9
10 14 19 12 21 -2 1 -18 12 -36 25 -18 12 -37 22 -42 22 -14 0 -41 29 -41 44
0 8 20 33 45 57 51 50 55 59 22 59 -13 0 -32 9 -42 20 -25 27 -10 80 28 98 15
7 27 17 27 23 0 15 -36 11 -50 -6 -7 -8 -18 -15 -25 -15 -18 0 -75 85 -75 112
0 52 -9 99 -20 113 -6 8 -14 43 -17 77 -4 38 -15 81 -29 108 -13 25 -24 54
-24 66 0 11 -11 43 -24 70 -13 28 -27 71 -31 96 -6 41 -5 47 15 53 13 4 30 0
46 -9 13 -9 36 -21 50 -27 26 -9 27 -9 21 27 -3 20 -13 47 -22 60 -15 23 -17
24 -52 9 -20 -8 -44 -13 -55 -9 -14 4 -18 0 -18 -21 0 -14 -5 -35 -10 -45 -8
-16 -15 -18 -35 -10 -36 14 -31 -1 15 -46 22 -21 40 -46 40 -54 0 -8 7 -24 15
-34 8 -11 15 -36 15 -56 0 -20 4 -40 9 -46 5 -5 17 -54 26 -109 10 -55 21
-108 26 -117 5 -9 9 -33 9 -53 0 -19 7 -46 15 -58 15 -23 36 -129 36 -179 0
-14 6 -32 14 -38 20 -17 19 -69 -1 -77 -33 -12 -134 71 -133 109 1 13 -11 55
-26 93 -15 39 -31 93 -36 120 -12 77 -26 136 -42 185 l-16 45 0 -122 c-1 -112
0 -122 19 -128 13 -4 21 -19 25 -43 4 -20 16 -55 28 -78 11 -22 17 -48 14 -57
-8 -22 -45 -22 -69 0 -17 15 -18 15 -18 -4 0 -15 8 -22 30 -26 17 -4 30 -13
30 -21 0 -7 13 -19 30 -26 16 -7 35 -19 42 -27 7 -8 23 -19 35 -24 22 -8 45
-46 37 -61 -6 -9 -66 9 -74 21 -3 6 -22 17 -42 26 -21 8 -42 24 -48 35 -13 25
-40 26 -40 2 0 -11 13 -24 33 -33 30 -13 32 -17 29 -56 -3 -36 -1 -42 12 -37
10 4 18 -1 22 -11 5 -11 -4 -25 -27 -45 l-34 -29 23 -16 c14 -11 22 -25 20
-38 -3 -19 2 -22 39 -25 39 -3 44 0 66 35 14 21 38 62 53 92 34 64 56 81 82
65 25 -16 26 -50 4 -81 -28 -40 -59 -104 -78 -160 -9 -26 -21 -53 -26 -60 -12
-15 -38 -6 -60 21 -9 11 -19 18 -23 15 -3 -4 1 -14 10 -22 8 -9 15 -22 15 -31
0 -26 41 -31 59 -8 14 19 27 21 136 22 155 2 179 -3 306 -61 58 -27 109 -49
113 -49 14 0 331 -181 353 -202 22 -21 37 -58 23 -58 -5 0 -30 13 -57 29 -26
16 -81 49 -121 73 -41 23 -90 53 -110 65 -53 32 -311 140 -354 148 -51 10
-258 11 -285 2 -19 -7 -39 -35 -30 -43 2 -2 41 1 88 7 99 13 86 13 174 -1 77
-13 179 -47 270 -93 33 -16 95 -45 139 -63 44 -19 91 -45 105 -58 14 -14 55
-42 91 -64 61 -37 103 -83 88 -97 -6 -6 -82 41 -183 114 -22 16 -80 46 -130
66 -49 20 -99 44 -111 52 -36 23 -173 72 -247 88 -93 20 -239 20 -278 -1 -36
-18 -46 -13 -32 18 8 18 5 26 -17 45 -23 19 -32 21 -59 13 -17 -5 -45 -22 -61
-39 -44 -44 -41 -84 15 -173 49 -78 59 -112 25 -80 -12 11 -32 34 -45 53 l-25
33 0 -222 c0 -122 4 -222 8 -222 5 0 7 13 4 29 -3 19 5 42 24 72 15 24 30 57
34 73 4 24 13 32 40 39 45 12 57 22 65 58 8 33 4 33 135 15 75 -10 137 -29
290 -88 302 -117 319 -125 393 -191 68 -61 74 -72 45 -91 -11 -7 -20 -5 -32 7
-9 8 -16 18 -16 22 0 3 -11 18 -25 33 l-25 27 0 -28 c0 -15 4 -27 9 -27 19 0
36 -99 35 -204 0 -68 1 -76 13 -60 7 10 13 14 13 9 0 -5 5 -4 12 3 8 8 8 15
-1 26 -7 9 -8 16 -2 20 5 4 9 19 9 34 -1 15 2 37 6 49 l7 23 37 -19 c39 -20
227 -78 302 -92 56 -12 151 -56 218 -102 58 -39 125 -57 192 -49 45 5 240 -36
240 -50 0 -9 -51 0 -104 19 -55 19 -146 18 -146 -2 0 -12 15 -15 73 -15 43 -1
82 -6 97 -15 14 -8 35 -14 48 -15 12 0 25 -7 28 -15 9 -22 23 -9 17 15 -4 16
0 20 21 20 29 0 45 25 27 43 -17 17 -13 27 12 27 23 1 57 21 57 35 0 4 -6 5
-14 2 -14 -5 -36 10 -36 25 0 4 11 8 23 8 13 0 27 3 31 7 4 5 11 8 14 9 48 4
92 18 92 30 0 18 -37 18 -71 0 -29 -15 -48 -6 -68 32 l-12 23 31 -16 c32 -17
60 -14 60 5 0 5 -18 26 -40 46 -22 20 -38 39 -35 42 3 4 26 -5 51 -18 32 -18
44 -30 40 -42 -5 -23 30 -24 54 -3 10 9 53 19 101 25 114 14 169 29 162 45 -2
8 -10 12 -16 10 -7 -3 -56 -9 -111 -14 -63 -6 -104 -15 -115 -25 -22 -20 -62
-21 -55 -2 3 7 -8 24 -25 37 -81 64 -88 68 -110 62 -36 -9 -208 17 -308 47
-86 26 -182 74 -170 86 6 6 92 -14 211 -50 50 -15 130 -29 180 -33 86 -6 96
-9 174 -55 45 -27 82 -54 82 -60 0 -6 9 -4 23 5 13 8 59 18 103 22 43 4 97 13
118 21 22 7 43 11 47 8 4 -2 10 0 13 5 4 5 3 12 -2 15 -16 10 -226 -15 -249
-29 -21 -14 -27 -12 -105 46 l-83 60 -115 4 c-106 3 -126 7 -250 49 -147 50
-180 64 -180 79 0 17 95 -2 197 -39 76 -27 126 -38 224 -48 134 -13 131 -11
280 -109 21 -14 28 -15 37 -4 8 10 -11 29 -89 86 -54 40 -99 77 -99 82 0 20
30 6 123 -57 67 -44 97 -70 93 -80 -4 -10 2 -14 22 -14 54 0 207 22 217 31 5
5 20 9 33 9 20 0 22 3 13 14 -15 18 9 38 44 39 20 0 25 5 25 24 0 20 -4 23
-20 18 -15 -5 -18 -3 -14 8 7 20 52 39 74 32 22 -7 33 7 24 29 -9 23 -27 20
-54 -9 -13 -14 -29 -25 -35 -25 -7 0 -23 -9 -37 -19 -18 -15 -51 -22 -129 -29
l-104 -10 -50 31 c-47 30 -105 81 -105 93 0 3 30 -12 67 -32 36 -21 63 -32 58
-25 -6 10 -2 11 16 6 l24 -6 -25 21 -25 21 39 -16 c39 -15 39 -15 21 5 -11 12
-13 20 -6 20 7 0 9 5 6 11 -4 6 2 5 13 -2 15 -10 38 -10 98 -2 47 6 84 6 91 1
7 -6 17 -1 27 14 18 25 4 42 -26 32 -9 -2 -55 -8 -103 -12 -84 -8 -86 -7 -81
13 3 11 6 24 6 29 0 5 6 4 13 -2 8 -7 38 -7 92 -1 51 5 81 5 85 -1 7 -11 43
25 53 51 3 9 1 21 -5 27 -6 6 -6 12 3 18 7 4 15 2 17 -5 3 -8 15 -4 37 14 19
14 36 25 39 25 3 0 16 10 27 21 17 17 23 19 31 8 7 -11 11 -11 15 -1 2 6 10 9
15 6 14 -9 3 66 -10 75 -13 9 -32 70 -32 102 0 16 9 38 19 48 25 25 38 88 23
112 -9 14 -5 24 23 54 42 43 44 70 10 119 -14 20 -25 38 -25 40 0 2 17 11 38
20 21 10 43 26 50 37 11 17 9 21 -13 29 -17 7 -42 6 -73 -1 -52 -11 -120 -15
-128 -6 -4 3 11 22 31 43 41 41 38 51 -22 59 -39 5 -44 3 -77 -38 -20 -24 -36
-48 -36 -54 0 -15 -58 -63 -75 -63 -8 0 -15 -4 -15 -10 0 -5 -8 -14 -18 -19
-24 -13 -76 22 -93 62 -6 15 -17 27 -24 27 -18 0 -35 24 -27 36 4 6 15 13 25
17 9 3 17 11 17 17 0 13 -23 13 -37 -1 -8 -8 -14 -5 -22 10 -7 12 -18 21 -26
21 -8 0 -15 6 -15 14 0 8 -10 16 -23 20 -13 3 -41 24 -62 47 -29 32 -40 54
-46 92 -5 29 -4 57 1 68 6 10 10 27 10 38 0 12 6 21 14 21 7 0 19 6 25 14 6 7
28 13 49 12 39 -1 39 0 41 -73 1 -26 5 -33 21 -33 13 0 20 -7 20 -20 0 -11 5
-20 10 -20 6 0 10 -6 10 -13 0 -23 37 -49 74 -52 56 -5 114 -35 121 -62 7 -30
22 -29 79 3 37 21 49 24 61 14 12 -10 20 -6 41 20 15 17 37 36 50 40 24 10 24
40 -2 61 -19 16 -19 83 0 76 8 -3 17 -1 19 6 3 7 4 -8 4 -32 -1 -27 3 -46 11
-49 7 -2 12 -12 12 -22 0 -32 17 -32 29 0 6 18 17 30 27 30 17 0 17 1 0 13
-18 13 -13 38 16 80 19 26 -2 52 -43 53 -45 1 -79 14 -79 29 0 13 -44 32 -142
62 -81 24 -77 55 7 57 23 1 48 6 56 13 19 15 90 33 114 28 11 -2 23 -4 26 -4
4 -1 10 -13 14 -28 l7 -28 16 23 c12 15 24 20 38 16 12 -3 25 -1 28 4 3 6 15
8 26 5 24 -6 26 9 5 27 -29 24 -18 40 30 40 42 0 46 2 59 35 15 34 52 55 75
40 6 -3 20 -38 32 -78 12 -40 26 -77 30 -83 10 -12 39 -102 39 -121 0 -20 -40
-1 -54 26 -17 33 -52 65 -59 54 -5 -8 -10 -49 -8 -70 1 -7 13 -13 27 -13 21 0
25 -3 18 -17 -10 -24 -9 -45 6 -126 7 -37 10 -70 6 -74 -3 -3 -16 -1 -29 5
-12 6 -30 10 -39 10 -19 -1 -25 -23 -9 -32 22 -14 21 -58 -4 -111 -14 -31 -25
-62 -25 -70 0 -8 -4 -15 -8 -15 -4 0 -14 -17 -21 -37 -8 -21 -19 -45 -26 -53
-7 -8 -30 -64 -50 -124 -32 -94 -36 -112 -25 -135 6 -14 14 -64 17 -111 4 -81
3 -87 -21 -113 -26 -28 -32 -63 -17 -102 7 -16 12 -8 25 40 10 33 22 74 28 90
6 17 20 57 31 90 77 231 131 382 139 393 14 16 33 15 52 -4 26 -25 18 -6 -19
51 -37 56 -39 91 -4 80 17 -6 19 -1 19 48 0 40 4 56 15 61 10 4 15 -1 15 -15
0 -12 5 -19 13 -16 6 2 12 17 12 34 0 16 6 37 14 47 12 14 12 27 -3 93 -9 42
-14 78 -11 81 3 4 21 -11 40 -33 19 -21 38 -35 42 -32 3 4 -1 13 -11 20 -26
19 -35 104 -12 113 10 4 25 -1 37 -12 17 -16 22 -16 29 -4 13 20 12 30 0 30
-16 0 -50 62 -50 91 0 14 -9 34 -19 43 -11 10 -25 32 -32 49 -7 18 -26 52 -41
76 -31 50 -35 79 -13 87 22 9 42 -12 56 -54 6 -20 19 -46 29 -57 10 -11 21
-34 25 -52 7 -33 40 -83 55 -83 15 0 -7 58 -82 222 -28 64 -37 94 -32 110 4
13 8 32 8 43 1 14 8 20 27 21 14 1 34 6 44 12 17 9 23 3 52 -51 18 -34 33 -66
33 -72 0 -5 4 -17 9 -24 8 -12 13 -11 30 10 29 35 26 58 -9 71 -20 6 -38 24
-51 49 -10 21 -26 39 -35 39 -10 0 -14 7 -12 23 3 19 10 22 50 25 l47 3 -2 37
c-2 30 2 38 18 40 24 3 68 -34 59 -50 -8 -12 12 -108 33 -159 13 -32 13 -40 0
-72 -13 -31 -14 -37 -1 -48 8 -6 14 -17 14 -23 0 -16 -42 -56 -58 -56 -7 0
-12 -7 -12 -15 0 -8 -7 -15 -15 -15 -17 0 -20 16 -5 25 12 8 13 35 1 35 -5 0
-12 -10 -15 -22 l-6 -23 -25 28 c-14 15 -25 37 -25 48 0 10 -7 19 -16 19 -9 0
-25 23 -40 58 -33 73 -43 85 -59 72 -10 -8 2 -39 52 -133 61 -114 66 -130 84
-242 20 -129 21 -168 13 -1050 -3 -391 -16 -865 -24 -890 -2 -5 1 -21 7 -35
12 -31 0 -229 -17 -269 -9 -22 -9 -35 0 -50 6 -12 10 -49 10 -83 0 -35 1 -97
2 -138 3 -64 6 -75 20 -72 27 4 31 -17 5 -27 -21 -8 -25 -18 -31 -68 -3 -32
-6 -65 -6 -73 0 -8 0 -72 -1 -142 0 -121 1 -127 23 -142 l23 -17 -21 -17 c-20
-16 -22 -29 -29 -212 -9 -268 -11 -280 -43 -280 -9 0 -41 -9 -70 -20 -29 -11
-68 -20 -88 -20 -20 0 -49 -9 -65 -21 -17 -12 -48 -23 -69 -26 -36 -5 -40 -3
-40 16 l0 22 -30 -22 c-24 -18 -32 -20 -45 -9 -13 10 -15 9 -15 -9 0 -26 -33
-48 -87 -57 -49 -7 -73 6 -73 40 0 12 -9 27 -20 34 -31 19 -24 55 20 104 21
25 37 48 34 51 -4 3 3 18 15 33 11 15 21 31 21 36 0 6 19 41 43 79 31 51 48
69 64 69 21 0 22 -3 19 -87 -2 -49 -9 -108 -15 -133 -7 -25 -14 -67 -17 -95
-5 -46 -5 -48 9 -30 12 17 46 161 78 335 22 119 22 129 5 136 -10 4 -22 2 -29
-5 -6 -6 -19 -11 -28 -11 -11 0 -20 -11 -24 -29 -3 -16 -15 -37 -25 -46 -10
-9 -21 -29 -25 -44 -3 -15 -18 -33 -35 -43 -20 -11 -30 -25 -30 -41 0 -37 -40
-68 -78 -61 -21 4 -32 12 -32 24 0 9 -9 25 -19 34 -16 14 -19 29 -17 70 4 86
35 117 106 102 17 -3 30 -4 30 -3 0 1 4 17 9 35 8 25 7 32 -2 29 -18 -6 -47
11 -47 29 0 8 12 19 27 25 23 8 30 6 50 -16 29 -30 73 -34 73 -6 0 10 -7 21
-15 25 -8 3 -12 12 -9 20 8 20 -30 30 -57 16 -17 -10 -24 -9 -36 3 -20 20 -3
51 38 72 26 14 29 20 24 43 -3 16 3 52 14 85 l19 58 -27 -6 c-19 -4 -32 0 -44
13 -18 19 -15 52 21 270 14 89 60 110 66 30 2 -19 8 -43 14 -53 9 -17 12 -14
22 24 16 62 11 85 -23 89 -26 3 -27 6 -26 52 1 27 -2 55 -8 62 -6 7 -13 26
-17 41 -4 17 -11 25 -18 21 -6 -4 -25 -7 -42 -6 -17 0 -36 -4 -43 -10 -10 -8
-19 -6 -33 7 -11 10 -20 15 -20 10 0 -4 -7 -55 -16 -114 -9 -58 -13 -124 -10
-146 3 -22 0 -60 -5 -85 -6 -25 -7 -60 -4 -78 5 -28 9 -31 21 -22 8 7 14 22
14 35 0 25 29 55 53 55 13 0 17 -9 18 -37 0 -21 2 -83 3 -138 2 -97 1 -100
-26 -129 -31 -32 -33 -42 -18 -81 13 -33 -3 -100 -25 -109 -9 -3 -15 -19 -15
-40 0 -32 -19 -56 -44 -56 -11 0 -6 69 6 95 13 28 5 43 -14 28 -7 -6 -58 -26
-113 -46 -111 -38 -281 -68 -365 -63 -67 3 -160 33 -160 50 0 7 -8 28 -17 47
-9 18 -18 58 -19 89 -1 30 -2 65 -3 78 -2 36 -17 23 -60 -48 -30 -48 -36 -66
-25 -68 8 -2 14 -7 14 -10 -1 -13 -35 -48 -52 -55 -10 -3 -18 -16 -18 -28 0
-25 -33 -74 -74 -111 -30 -26 -30 -27 -8 -28 12 0 22 5 22 10 0 6 8 10 18 10
15 -1 15 -2 -3 -18 -11 -9 -20 -27 -19 -39 1 -12 -3 -20 -7 -17 -5 3 -9 0 -9
-6 0 -16 -35 -49 -121 -113 -53 -40 -84 -72 -103 -106 -33 -61 -33 -68 0 -42
33 26 41 26 54 0 10 -18 7 -25 -26 -54 -22 -20 -35 -39 -31 -48 3 -7 31 -24
64 -37 32 -13 72 -28 88 -35 17 -7 57 -21 90 -31 33 -10 62 -22 66 -26 3 -5
36 -19 75 -32 130 -45 322 -125 380 -159 12 -6 41 -37 66 -67 40 -50 143 -133
304 -245 31 -22 62 -45 68 -51 39 -38 51 -39 499 -42 l438 -4 38 35 c44 39
101 62 136 53 16 -4 31 1 47 15 13 12 42 32 64 44 l39 22 0 2461 c0 1353 -4
2464 -8 2468 -4 5 -12 2 -16 -5 -7 -10 -10 -9 -16 8 -3 11 -11 21 -16 21 -6 0
-7 5 -3 11 3 6 8 40 9 76 1 47 -2 66 -11 70 -8 3 -14 16 -14 29 0 27 39 59 54
44 21 -21 27 -8 24 53 l-3 62 -141 3 c-135 2 -142 2 -147 -18z m-3345 -1936
c119 -7 123 -8 197 -49 42 -24 99 -50 126 -59 28 -9 114 -52 193 -95 92 -51
150 -77 162 -74 21 6 29 -20 10 -32 -5 -3 -10 -15 -10 -26 0 -18 -3 -18 -42 9
-54 37 -261 147 -353 188 -38 17 -95 42 -125 57 -48 22 -74 26 -202 32 -82 4
-148 11 -148 16 0 15 44 50 57 45 7 -3 68 -9 135 -12z m-355 -255 c23 2 35 -2
39 -13 8 -21 22 -20 79 5 45 20 53 20 149 9 74 -9 135 -24 226 -58 69 -25 136
-52 149 -61 13 -8 61 -31 106 -51 75 -34 275 -166 293 -194 11 -19 88 -55 176
-83 106 -33 143 -53 188 -102 25 -26 49 -42 73 -47 20 -3 40 -15 46 -26 29
-54 -51 -29 -115 37 -55 54 -103 78 -227 110 -83 22 -118 41 -214 119 -146
119 -509 280 -693 306 -105 16 -169 8 -217 -24 -40 -28 -55 -32 -55 -16 0 6 5
10 10 10 6 0 10 5 10 11 0 7 -9 9 -24 5 -27 -7 -41 6 -52 48 -5 23 -4 27 7 20
7 -4 28 -7 46 -5z m264 -90 c90 -11 345 -99 429 -147 25 -14 65 -33 89 -42 53
-21 241 -158 241 -176 0 -8 5 -14 12 -14 6 0 30 -9 52 -19 23 -10 95 -35 160
-56 107 -33 124 -41 169 -85 34 -33 64 -52 94 -59 40 -11 64 -33 50 -48 -16
-15 -80 11 -120 49 -23 22 -51 46 -62 53 -21 14 -140 55 -215 75 -53 13 -140
51 -140 60 0 3 -24 23 -52 45 -29 21 -66 51 -83 66 -16 16 -48 35 -70 45 -22
9 -73 32 -113 51 -160 76 -353 140 -471 157 l-113 16 -47 -33 c-70 -51 -71
-51 -71 -22 0 18 7 28 25 35 14 5 42 21 63 35 41 28 55 29 173 14z m1681 -91
c32 -22 63 -97 54 -132 -4 -15 -15 -26 -29 -29 -20 -4 -19 -4 4 -6 31 -1 50
-41 21 -41 -12 0 -13 -3 -5 -8 6 -4 15 -20 18 -35 l7 -27 -63 1 c-96 1 -166
14 -244 44 -38 14 -103 38 -143 52 -41 14 -71 30 -69 37 4 11 74 12 172 2 36
-4 45 -2 30 5 -18 8 -17 9 5 4 14 -2 31 -5 38 -5 6 0 11 -5 10 -11 -2 -6 2
-13 9 -16 8 -3 11 3 8 17 -3 18 0 21 15 17 13 -3 20 0 20 9 0 8 10 14 21 14
18 0 19 2 9 15 -7 8 -17 15 -23 15 -12 0 -47 30 -47 40 0 4 8 7 18 6 9 0 16 5
15 12 -2 6 6 12 17 12 13 0 24 10 30 25 9 22 12 23 42 13 18 -6 45 -19 60 -30z
m-1717 7 c72 -7 273 -75 460 -157 50 -22 105 -45 124 -51 19 -6 58 -34 86 -62
117 -114 137 -125 348 -189 138 -42 149 -47 203 -97 37 -33 94 -59 130 -59 14
0 26 -38 15 -45 -15 -9 -79 16 -117 45 -85 65 -113 81 -175 99 -204 59 -291
90 -313 112 -85 84 -167 143 -246 175 -359 147 -438 171 -607 189 -55 6 -63 5
-63 -10 0 -21 -17 -38 -58 -59 -30 -16 -32 -16 -32 1 0 26 12 39 40 48 34 10
50 25 61 53 8 21 14 23 42 19 17 -3 64 -9 102 -12z m904 -55 c24 -17 51 -30
61 -30 31 0 119 -51 144 -85 17 -22 44 -41 76 -52 31 -11 51 -24 54 -37 7 -27
2 -30 -31 -21 -15 3 -54 33 -85 65 -49 51 -66 62 -135 84 -99 31 -153 62 -153
87 0 26 18 24 69 -11z m-28 -79 c13 -10 64 -32 112 -49 71 -25 99 -41 141 -81
33 -31 68 -54 94 -60 36 -10 52 -26 52 -51 0 -23 -79 16 -124 61 -57 58 -79
71 -166 94 -94 26 -160 61 -160 85 0 25 20 26 51 1z m1107 -138 c75 -57 87
-63 131 -63 27 0 72 5 102 10 38 7 55 7 57 0 3 -7 8 -7 18 1 11 9 14 8 14 -4
0 -18 -28 -36 -50 -34 -8 1 -54 -2 -102 -7 l-87 -8 -64 53 c-36 30 -81 67
-101 82 -20 16 -34 33 -31 38 8 12 10 10 113 -68z m-601 -148 c89 -30 207 -55
293 -61 97 -8 110 -12 110 -34 0 -25 -31 -26 -168 -5 -115 18 -181 37 -236 69
-23 13 -53 26 -68 30 -28 6 -39 26 -15 26 6 0 44 -11 84 -25z m-598 -49 c15
-8 98 -35 184 -60 171 -50 202 -63 262 -111 53 -42 72 -51 123 -60 24 -4 46
-14 49 -22 4 -9 14 -13 29 -9 12 3 49 -1 81 -10 32 -8 89 -21 127 -27 41 -7
71 -18 74 -26 6 -18 -58 -9 -166 23 -51 16 -84 21 -99 15 -12 -4 -34 -4 -50 1
-15 5 -40 12 -54 14 -14 3 -61 29 -105 58 -78 53 -102 62 -279 113 -202 59
-225 69 -225 102 0 17 14 17 49 -1z m589 -30 c25 -13 141 -44 187 -50 11 -2
29 0 41 4 11 5 28 3 40 -3 10 -7 44 -16 74 -22 38 -7 55 -15 55 -25 0 -11 -14
-16 -57 -18 -31 -2 -61 -9 -67 -16 -9 -11 1 -15 49 -20 51 -6 60 -10 60 -27 0
-17 -5 -19 -57 -13 -51 5 -88 11 -243 43 -43 9 -72 24 -91 47 -13 16 -12 17
11 10 59 -16 203 -46 207 -43 2 2 1 11 -3 20 -4 11 -28 21 -67 29 -65 14 -178
66 -185 86 -5 16 13 15 46 -2z m1244 -506 c-1 -20 3 -37 13 -44 13 -9 10 -14
-20 -30 -19 -11 -35 -22 -35 -25 0 -4 -12 -22 -27 -40 -20 -23 -33 -30 -45
-26 -29 12 -22 52 12 70 32 17 39 39 15 49 -8 3 -15 16 -15 29 0 27 23 52 39
42 6 -3 19 -1 28 4 27 16 38 7 35 -29z"/>
<path d="M5698 5676 l-27 -34 40 -41 c31 -30 39 -45 34 -61 -7 -23 -43 -27
-51 -5 -7 18 -34 19 -69 3 -35 -16 -50 1 -50 59 0 59 -20 68 -28 11 -4 -32
-14 -49 -41 -72 -35 -31 -35 -32 -26 -81 14 -69 23 -74 69 -37 41 33 74 41 87
21 3 -6 19 -8 38 -5 21 4 39 1 54 -10 24 -17 25 -15 22 35 -2 37 11 51 51 51
30 0 39 -15 39 -66 0 -20 5 -44 10 -55 9 -16 14 -17 30 -6 27 16 28 73 1 80
-21 5 -61 86 -61 123 0 13 -4 24 -9 24 -4 0 -14 20 -21 45 -7 25 -17 45 -22
45 -5 0 -4 -9 2 -21 7 -11 9 -23 6 -26 -6 -6 -42 27 -47 44 -2 8 -15 -1 -31
-21z"/>
<path d="M5411 4549 c-14 -5 -31 -7 -38 -5 -7 3 -13 -1 -13 -10 0 -11 6 -15
20 -11 26 7 50 -17 50 -49 0 -30 -24 -41 -55 -24 -19 10 -28 9 -51 -3 -16 -9
-39 -20 -51 -26 -12 -6 -27 -20 -33 -31 -10 -18 -8 -22 8 -27 11 -3 23 -15 26
-28 6 -22 9 -23 39 -13 44 15 57 27 50 45 -5 14 0 15 32 10 20 -3 35 -3 32 0
-7 6 18 56 42 86 12 15 12 17 -2 17 -21 0 -31 34 -17 60 12 23 2 25 -39 9z"/>
<path d="M5140 4119 c-40 -16 -5 -29 82 -29 73 0 81 -2 125 -34 27 -19 77 -45
113 -59 36 -13 116 -49 178 -79 61 -30 112 -51 112 -47 0 17 -61 66 -114 92
-30 15 -94 43 -143 62 -48 20 -106 48 -128 63 -28 18 -54 27 -85 27 -25 1 -61
4 -80 8 -19 3 -46 2 -60 -4z"/>
<path d="M5205 1589 c-78 -18 -241 -30 -295 -23 -57 8 -154 7 -202 -2 l-28 -6
0 -529 0 -530 203 5 c111 3 213 4 227 3 14 -1 95 -2 180 -2 145 0 157 1 187
23 32 23 63 29 63 13 0 -5 7 -17 16 -25 14 -15 90 -16 722 -15 389 0 721 3
738 6 57 9 21 72 -43 73 -32 0 -92 43 -79 56 6 6 14 10 18 10 19 -2 19 16 0
21 -26 6 -27 11 -6 41 8 12 13 23 10 23 -3 1 -9 2 -13 3 -11 2 -67 39 -74 48
-3 5 -16 8 -30 8 -22 0 -79 6 -88 9 -2 0 2 8 9 16 13 16 6 35 -14 35 -17 0
-46 32 -46 51 -1 31 -37 62 -74 63 -23 1 -35 5 -32 12 12 31 -45 -8 -141 -95
-58 -53 -111 -100 -118 -106 -26 -18 -109 33 -193 120 -45 45 -101 92 -124
105 -29 15 -56 42 -83 84 -40 60 -61 74 -92 62 -14 -6 -14 -8 0 -24 28 -32 48
-95 46 -151 0 -37 9 -89 30 -154 23 -75 30 -116 30 -173 l-1 -74 -33 0 c-18 0
-71 16 -117 35 -45 19 -108 38 -138 43 -30 5 -111 26 -180 46 -142 42 -310 58
-389 36 -24 -6 -45 -9 -48 -6 -3 3 1 25 10 48 26 73 86 273 93 309 4 19 11 43
17 54 6 11 11 33 13 50 4 52 24 159 34 188 5 16 23 46 40 67 16 21 30 43 30
49 0 6 5 11 10 11 6 0 10 7 10 15 0 9 9 15 25 15 14 0 25 5 25 10 0 6 -7 10
-16 10 -13 0 -14 3 -4 15 7 8 16 12 21 9 5 -3 14 -2 21 2 8 5 6 10 -8 15 -25
10 -69 9 -119 -2z"/>
<path d="M5736 988 c-5 -41 -1 -70 18 -128 21 -64 28 -75 52 -82 15 -4 30 -6
32 -4 2 3 -6 38 -17 78 -12 41 -21 98 -21 126 0 38 -4 52 -14 52 -8 0 -21 3
-29 6 -11 4 -16 -7 -21 -48z"/>
<path d="M3920 10 c0 -7 1630 -10 4870 -10 3240 0 4870 3 4870 10 0 7 -1630
10 -4870 10 -3240 0 -4870 -3 -4870 -10z"/>
</g>
</svg>
